<svg version="1.1" id="Layer_1" xmlns="http://www.w3.org/2000/svg" xmlns:xlink="http://www.w3.org/1999/xlink" x="0px" y="0px"
	 width="100%" viewBox="0 0 801 800" enable-background="new 0 0 801 800" xml:space="preserve">
<path fill="#F4F4F4" opacity="1.000000" stroke="none" 
	d="
M1.000000,800.000000 
	C1.000000,533.735962 1.000000,267.471924 1.000000,1.000000 
	C267.361328,1.000000 533.722717,1.000000 800.653748,1.216034 
	C801.426697,1.697334 801.685547,1.886644 802.000000,2.000000 
	C802.000000,267.694702 802.000000,533.389404 801.784424,799.655151 
	C801.294006,800.421448 801.104370,800.679382 801.000000,801.000000 
	C534.971985,801.000000 268.943939,801.000000 2.347283,800.783447 
	C1.571816,800.305481 1.312263,800.116516 1.000000,800.000000 
M325.262421,280.124634 
	C337.559448,313.286255 360.737122,334.872040 394.377441,345.586731 
	C411.494019,351.038452 428.445190,357.008545 445.479279,362.720093 
	C503.020172,382.013550 545.370544,418.779510 571.668884,473.486633 
	C574.943848,480.299438 578.559021,482.291687 585.486816,481.763367 
	C592.865234,481.200653 600.319824,481.636749 607.785583,481.636749 
	C607.785583,427.542908 607.785583,374.266998 607.785583,320.231812 
	C565.898743,320.231812 524.218811,320.231812 482.145416,320.231812 
	C482.145416,317.669373 482.145416,315.863098 482.145416,314.056854 
	C482.145172,289.896057 482.260620,265.734528 482.112701,241.574631 
	C481.959656,216.575714 461.586487,195.475266 436.593353,194.986328 
	C413.441528,194.533386 390.269318,194.596497 367.114655,194.967148 
	C345.277191,195.316711 325.626984,211.985413 322.275696,233.491821 
	C319.886963,248.821121 319.656464,264.346497 325.262421,280.124634 
M387.018524,457.467255 
	C379.927429,455.068665 372.887146,452.505707 365.737366,450.297119 
	C299.326202,429.782471 252.210373,388.025696 225.621429,323.484161 
	C225.025345,322.037262 222.538025,320.590118 220.863068,320.504181 
	C214.215332,320.163086 207.525208,320.630829 200.879715,320.268524 
	C196.479202,320.028595 195.248337,321.371216 195.262482,325.825470 
	C195.421341,375.814178 195.436005,425.803833 195.249893,475.792328 
	C195.231262,480.790894 196.859238,481.760315 201.492783,481.738281 
	C239.317078,481.558411 277.142609,481.637054 314.967773,481.637085 
	C316.886078,481.637085 318.804382,481.637115 321.140961,481.637115 
	C321.140961,484.229767 321.140930,486.032776 321.140930,487.835785 
	C321.141022,511.663971 321.057861,535.492493 321.163544,559.320190 
	C321.279816,585.526855 342.224548,606.831238 368.327576,607.095276 
	C390.653809,607.321106 412.984161,607.167786 435.312592,607.130981 
	C445.107574,607.114868 453.983612,604.063965 461.941254,598.446655 
	C481.424683,584.693176 485.311920,564.499207 481.414337,543.301819 
	C475.536469,511.334503 457.136902,487.254913 427.902924,472.741882 
	C415.177307,466.424377 401.175873,462.676880 387.018524,457.467255 
z"/>
<path fill="#FFFFFF" opacity="1.000000" stroke="none" 
	d="
M802.000000,1.500000 
	C801.685547,1.886644 801.426697,1.697334 801.111694,1.216034 
	C801.333313,1.000000 801.666687,1.000000 802.000000,1.500000 
z"/>
<path fill="#FFFFFF" opacity="1.000000" stroke="none" 
	d="
M1.000000,800.500000 
	C1.312263,800.116516 1.571816,800.305481 1.889330,800.783447 
	C1.666667,801.000000 1.333333,801.000000 1.000000,800.500000 
z"/>
<path fill="#FFFFFF" opacity="1.000000" stroke="none" 
	d="
M801.500000,801.000000 
	C801.104370,800.679382 801.294006,800.421448 801.784424,800.113159 
	C802.000000,800.333313 802.000000,800.666687 801.500000,801.000000 
z"/>
<path fill="#2AD3B3" opacity="1.000000" stroke="none" 
	d="
M325.153687,279.744202 
	C319.656464,264.346497 319.886963,248.821121 322.275696,233.491821 
	C325.626984,211.985413 345.277191,195.316711 367.114655,194.967148 
	C390.269318,194.596497 413.441528,194.533386 436.593353,194.986328 
	C461.586487,195.475266 481.959656,216.575714 482.112701,241.574631 
	C482.260620,265.734528 482.145172,289.896057 482.145416,314.056854 
	C482.145416,315.863098 482.145416,317.669373 482.145416,320.231812 
	C524.218811,320.231812 565.898743,320.231812 607.785583,320.231812 
	C607.785583,374.266998 607.785583,427.542908 607.785583,481.636749 
	C600.319824,481.636749 592.865234,481.200653 585.486816,481.763367 
	C578.559021,482.291687 574.943848,480.299438 571.668884,473.486633 
	C545.370544,418.779510 503.020172,382.013550 445.479279,362.720093 
	C428.445190,357.008545 411.494019,351.038452 394.377441,345.586731 
	C360.737122,334.872040 337.559448,313.286255 325.153687,279.744202 
z"/>
<path fill="#2AD3B3" opacity="1.000000" stroke="none" 
	d="
M387.386169,457.614746 
	C401.175873,462.676880 415.177307,466.424377 427.902924,472.741882 
	C457.136902,487.254913 475.536469,511.334503 481.414337,543.301819 
	C485.311920,564.499207 481.424683,584.693176 461.941254,598.446655 
	C453.983612,604.063965 445.107574,607.114868 435.312592,607.130981 
	C412.984161,607.167786 390.653809,607.321106 368.327576,607.095276 
	C342.224548,606.831238 321.279816,585.526855 321.163544,559.320190 
	C321.057861,535.492493 321.141022,511.663971 321.140930,487.835785 
	C321.140930,486.032776 321.140961,484.229767 321.140961,481.637115 
	C318.804382,481.637115 316.886078,481.637085 314.967773,481.637085 
	C277.142609,481.637054 239.317078,481.558411 201.492783,481.738281 
	C196.859238,481.760315 195.231262,480.790894 195.249893,475.792328 
	C195.436005,425.803833 195.421341,375.814178 195.262482,325.825470 
	C195.248337,321.371216 196.479202,320.028595 200.879715,320.268524 
	C207.525208,320.630829 214.215332,320.163086 220.863068,320.504181 
	C222.538025,320.590118 225.025345,322.037262 225.621429,323.484161 
	C252.210373,388.025696 299.326202,429.782471 365.737366,450.297119 
	C372.887146,452.505707 379.927429,455.068665 387.386169,457.614746 
z"/>
</svg>